<?xml version="1.0" encoding="UTF-8"?>
<!DOCTYPE svg PUBLIC "-//W3C//DTD SVG 1.1//EN" "http://www.w3.org/Graphics/SVG/1.1/DTD/svg11.dtd">
<!-- Creator: CorelDRAW -->
<svg xmlns="http://www.w3.org/2000/svg" xml:space="preserve" width="2048px" height="2048px" style="shape-rendering:geometricPrecision; text-rendering:geometricPrecision; image-rendering:optimizeQuality; fill-rule:evenodd; clip-rule:evenodd"
viewBox="0 0 2048 2048"
 xmlns:xlink="http://www.w3.org/1999/xlink">
 <defs>
  <style type="text/css">
   <![CDATA[
    .fil1 {fill:none}
    .fil2 {fill:#5D4037}
    .fil0 {fill:#FFD54F}
    .fil3 {fill:#212121;fill-rule:nonzero}
   ]]>
  </style>
 </defs>
 <g id="Layer_x0020_1">
  <metadata id="CorelCorpID_0Corel-Layer"/>
  <path class="fil0" d="M1024 255.999c424.155,0 768.001,343.845 768.001,768.001 0,424.155 -343.845,768.001 -768.001,768.001 -424.155,0 -768.001,-343.845 -768.001,-768.001 0,-424.155 343.845,-768.001 768.001,-768.001z"/>
  <rect class="fil1" width="2048" height="2048"/>
  <rect class="fil1" x="255.999" y="255.999" width="1536" height="1536"/>
  <path class="fil2" d="M1261.12 691.778c44.1839,0 80.0008,35.817 80.0008,80.0008 0,44.1839 -35.817,80.0008 -80.0008,80.0008 -44.1839,0 -80.0008,-35.817 -80.0008,-80.0008 0,-44.1839 35.817,-80.0008 80.0008,-80.0008z"/>
  <path class="fil2" d="M786.884 691.778c44.1839,0 80.0008,35.817 80.0008,80.0008 0,44.1839 -35.817,80.0008 -80.0008,80.0008 -44.1839,0 -80.0008,-35.817 -80.0008,-80.0008 0,-44.1839 35.817,-80.0008 80.0008,-80.0008z"/>
  <polygon class="fil2" points="656,1280 1392,1280 1392,1344 656,1344 "/>
  <path class="fil3" d="M1291.97 582.998c55.5012,0 105.751,22.5 142.126,58.8745 36.3744,36.3756 58.8745,86.6257 58.8745,142.127 0,55.4989 -22.5,105.751 -58.8745,142.126 -36.3744,36.3744 -86.6245,58.8745 -142.126,58.8745 -55.5012,0 -105.751,-22.5 -142.127,-58.8745 -36.3744,-36.3744 -58.8745,-86.6245 -58.8745,-142.126 0,-55.5 22.5,-105.752 58.8745,-142.127 36.3756,-36.3744 86.6257,-58.8745 142.127,-58.8745zm106.775 94.2249c-27.3225,-27.3225 -65.0752,-44.224 -106.775,-44.224 -41.7,0 -79.4528,16.9016 -106.776,44.224 -27.3225,27.3225 -44.224,65.0752 -44.224,106.776 0,41.7 16.9016,79.4528 44.224,106.775 27.3236,27.3225 65.0764,44.224 106.776,44.224 41.7,0 79.4528,-16.9016 106.775,-44.224 27.3225,-27.3225 44.224,-65.0752 44.224,-106.775 0,-41.7 -16.9016,-79.4528 -44.224,-106.776z"/>
  <path class="fil3" d="M775.162 582.998c55.5012,0 105.751,22.5 142.126,58.8745 36.3744,36.3756 58.8745,86.6257 58.8745,142.127 0,55.4989 -22.5,105.751 -58.8745,142.126 -36.3744,36.3744 -86.6268,58.8745 -142.126,58.8745 -55.5012,0 -105.751,-22.5 -142.127,-58.8745 -36.3744,-36.3744 -58.8745,-86.6245 -58.8745,-142.126 0,-55.5 22.5,-105.752 58.8745,-142.127 36.3744,-36.3744 86.6268,-58.8745 142.127,-58.8745zm106.775 94.2249c-27.3225,-27.3225 -65.0752,-44.224 -106.775,-44.224 -41.7012,0 -79.454,16.9016 -106.776,44.224 -27.3225,27.3225 -44.224,65.0752 -44.224,106.776 0,41.7 16.9016,79.4528 44.224,106.775 27.3236,27.3225 65.0764,44.224 106.776,44.224 41.7,0 79.4528,-16.9016 106.775,-44.224 27.3225,-27.3225 44.224,-65.0752 44.224,-106.775 0,-41.7 -16.9016,-79.4528 -44.224,-106.776z"/>
  <polygon class="fil3" points="943.683,708.08 1124.97,708.08 1124.97,758.081 943.683,758.081 "/>
  <polygon class="fil3" points="1437.17,686.043 1654.13,584.889 1680.81,625.851 1458.27,731.158 "/>
  <polygon class="fil3" points="597.453,731.158 368.152,624.176 395.823,582.052 618.547,686.043 "/>
 </g>
</svg>
